# xmcd CD database file
#
# Track frame offsets:
#	150
#	37320
#	68409
#	96488
#	114415
#	122737
#	157135
#	169767
#	175123
#	180590
#
# Disc length: 2571 seconds
#
# Revision: 0
# Processed by: cddbd v1.5.2PL0 Copyright (c) Steve Scherf et al.
# Submitted via: CDex 1.70beta2
#
DISCID=860a090a
DTITLE=Daniel Erdmann - Passages
DYEAR=2008
DGENRE=Jazz
TTITLE0=Les fées des eaux
TTITLE1=Drames d’un instant
TTITLE2=C’était donc ça
TTITLE3=Ou presque
TTITLE4=Sur place
TTITLE5=Petit à petit
TTITLE6=Que faire d’autre ?
TTITLE7=Mais comment répondre ?
TTITLE8=Ici et là
TTITLE9=L’appel des ondines
EXTD=YEAR: 2008
EXTT0=
EXTT1=
EXTT2=
EXTT3=
EXTT4=
EXTT5=
EXTT6=
EXTT7=
EXTT8=
EXTT9=
PLAYORDER=
